<svg width="44" height="40" viewBox="0 0 44 40" fill="none" xmlns="http://www.w3.org/2000/svg">
<path d="M22.22 33.8965L22 34.1144L21.758 33.8965C11.308 24.5014 4.4 18.2888 4.4 11.9891C4.4 7.62943 7.7 4.35967 12.1 4.35967C15.488 4.35967 18.788 6.53951 19.954 9.50409H24.046C25.212 6.53951 28.512 4.35967 31.9 4.35967C36.3 4.35967 39.6 7.62943 39.6 11.9891C39.6 18.2888 32.692 24.5014 22.22 33.8965ZM31.9 0C28.072 0 24.398 1.76567 22 4.53406C19.602 1.76567 15.928 0 12.1 0C5.324 0 0 5.25341 0 11.9891C0 20.2071 7.48 26.9428 18.81 37.1226L22 40L25.19 37.1226C36.52 26.9428 44 20.2071 44 11.9891C44 5.25341 38.676 0 31.9 0Z" fill="#FF636D"/>
<path d="M22.705 32.5068L22.5 32.703L22.2745 32.5068C12.537 24.0512 6.1 18.4599 6.1 12.7902C6.1 8.86648 9.175 5.92371 13.275 5.92371C16.432 5.92371 19.507 7.88556 20.5935 10.5537H24.4065C25.493 7.88556 28.568 5.92371 31.725 5.92371C35.825 5.92371 38.9 8.86648 38.9 12.7902C38.9 18.4599 32.463 24.0512 22.705 32.5068ZM31.725 2C28.158 2 24.7345 3.5891 22.5 6.08065C20.2655 3.5891 16.842 2 13.275 2C6.961 2 2 6.72807 2 12.7902C2 20.1864 8.97 26.2485 19.5275 35.4104L22.5 38L25.4725 35.4104C36.03 26.2485 43 20.1864 43 12.7902C43 6.72807 38.039 2 31.725 2Z" fill="#FF636D"/>
<path d="M22.675 29.5749L22.5 29.733L22.3075 29.5749C13.995 22.7635 8.5 18.2594 8.5 13.6921C8.5 10.5313 11.125 8.16076 14.625 8.16076C17.32 8.16076 19.945 9.74114 20.8725 11.8905H24.1275C25.055 9.74114 27.68 8.16076 30.375 8.16076C33.875 8.16076 36.5 10.5313 36.5 13.6921C36.5 18.2594 31.005 22.7635 22.675 29.5749ZM30.375 5C27.33 5 24.4075 6.28011 22.5 8.28719C20.5925 6.28011 17.67 5 14.625 5C9.235 5 5 8.80872 5 13.6921C5 19.6501 10.95 24.5335 19.9625 31.9139L22.5 34L25.0375 31.9139C34.05 24.5335 40 19.6501 40 13.6921C40 8.80872 35.765 5 30.375 5Z" fill="#FF636D"/>
<path d="M22.645 26.4905L22.5 26.6158L22.3405 26.4905C15.453 21.0883 10.9 17.5161 10.9 13.8937C10.9 11.3869 13.075 9.50681 15.975 9.50681C18.208 9.50681 20.383 10.7602 21.1515 12.4648H23.8485C24.617 10.7602 26.792 9.50681 29.025 9.50681C31.925 9.50681 34.1 11.3869 34.1 13.8937C34.1 17.5161 29.547 21.0883 22.645 26.4905ZM29.025 7C26.502 7 24.0805 8.01526 22.5 9.60708C20.9195 8.01526 18.498 7 15.975 7C11.509 7 8 10.0207 8 13.8937C8 18.6191 12.93 22.4921 20.3975 28.3455L22.5 30L24.6025 28.3455C32.07 22.4921 37 18.6191 37 13.8937C37 10.0207 33.491 7 29.025 7Z" fill="#FF636D"/>
<ellipse cx="22" cy="17" rx="14" ry="10" fill="#FF636D"/>
</svg>
