<svg width="26" height="26" fill="none" xmlns="http://www.w3.org/2000/svg"><circle cx="13" cy="13" r="13" fill="#fff"/><g clip-path="url(#clip0)"><path d="M9.409 16.273a6.863 6.863 0 005.256-11.272 7.685 7.685 0 01-2.35 15A7.685 7.685 0 015 14.666a6.833 6.833 0 004.409 1.607z" fill="#FFD93B"/><path d="M17.064 6.284a7.638 7.638 0 011.646 4.741 7.684 7.684 0 01-7.685 7.685 7.638 7.638 0 01-4.74-1.646A7.66 7.66 0 0012.314 20 7.684 7.684 0 0020 12.315a7.66 7.66 0 00-2.936-6.031z" fill="#F4C534"/><path d="M8.846 8l.792 1.605 1.77.257-1.281 1.248.302 1.763-1.583-.832-1.583.832.302-1.763-1.281-1.248 1.77-.257L8.846 8zM13.31 7.487l.41.831.919.133-.665.648.158.913-.821-.43-.821.43.157-.913-.664-.648.918-.133.41-.831z" fill="#FFD83B"/></g><defs><clipPath id="clip0"><path fill="#fff" transform="translate(5 5)" d="M0 0h15v15H0z"/></clipPath></defs></svg>