<svg width="26" height="26" fill="none" xmlns="http://www.w3.org/2000/svg"><circle cx="13" cy="13" r="13" fill="#fff"/><g clip-path="url(#clip0)"><path d="M20.378 14.336l-1.605-1.415 1.548-1.477a.218.218 0 00-.091-.369l-2.06-.594.761-1.994a.219.219 0 00-.035-.216.221.221 0 00-.206-.078l-2.117.341-.173-2.126a.222.222 0 00-.345-.163L14.29 7.457 13.217 5.61a.22.22 0 00-.382 0l-1.231 2.12-2.13-1.23a.222.222 0 00-.331.19l-.005 2.132L7 8.646a.221.221 0 00-.2.094.218.218 0 00-.017.218l.915 1.93-2.007.752a.22.22 0 00-.062.374l1.658 1.352L5.8 14.902a.219.219 0 00.105.365l2.082.514-.682 2.022a.218.218 0 00.043.215.221.221 0 00.21.07l2.102-.424.255 2.118a.222.222 0 00.351.15l1.717-1.28 1.144 1.746a.22.22 0 00.187.102h.008a.22.22 0 00.187-.117l1-1.828 1.811 1.141a.222.222 0 00.338-.176l.09-2.13 2.128.258a.221.221 0 00.203-.085.218.218 0 00.027-.218l-.839-1.963 2.035-.674a.22.22 0 00.077-.372z" fill="#FFA600"/><path d="M12.952 17.501a4.541 4.541 0 004.543-4.54 4.541 4.541 0 00-4.543-4.539 4.541 4.541 0 00-4.543 4.54 4.541 4.541 0 004.543 4.54z" fill="#FFDB2D"/><path d="M12.952 8.422a4.6 4.6 0 00-.338.013 4.541 4.541 0 014.204 4.527 4.541 4.541 0 01-4.204 4.527 4.541 4.541 0 004.881-4.527 4.541 4.541 0 00-4.543-4.54z" fill="#FFCA00"/></g><defs><clipPath id="clip0"><path fill="#fff" transform="translate(5.5 5.5)" d="M0 0h15v15H0z"/></clipPath></defs></svg>