<svg width="41" height="41" viewBox="0 0 41 41" fill="none" xmlns="http://www.w3.org/2000/svg">
<path d="M20.1672 0C9.09978 0 0.125259 9.22369 0.125259 20.6022C0.125259 29.7047 5.86788 37.4273 13.8311 40.1515C14.8328 40.3422 15.2005 39.7046 15.2005 39.1604C15.2005 38.6692 15.1819 37.0462 15.1733 35.3247C9.59761 36.571 8.42108 32.8939 8.42108 32.8939C7.50939 30.5126 6.19578 29.8794 6.19578 29.8794C4.37738 28.6007 6.33285 28.627 6.33285 28.627C8.34541 28.7723 9.40512 30.7501 9.40512 30.7501C11.1927 33.8997 14.0937 32.9891 15.2373 32.4627C15.4172 31.1311 15.9366 30.2223 16.5098 29.7078C12.0582 29.1869 7.37862 27.4203 7.37862 19.5261C7.37862 17.2768 8.16154 15.439 9.44362 13.9962C9.23552 13.4773 8.54952 11.3819 9.63777 8.54409C9.63777 8.54409 11.3208 7.99039 15.1507 10.6559C16.7494 10.1994 18.4639 9.9705 20.1672 9.96265C21.8704 9.9705 23.5863 10.1994 25.1879 10.6559C29.0133 7.99039 30.6939 8.54409 30.6939 8.54409C31.7848 11.3819 31.0985 13.4773 30.8904 13.9962C32.1755 15.439 32.9531 17.2768 32.9531 19.5261C32.9531 27.4391 28.2645 29.1814 23.8017 29.6914C24.5205 30.3308 25.1611 31.5846 25.1611 33.5067C25.1611 36.2633 25.1378 38.4819 25.1378 39.1604C25.1378 39.7087 25.4986 40.3511 26.5145 40.1488C34.4734 37.4215 40.2088 29.7017 40.2088 20.6022C40.2088 9.22369 31.2356 0 20.1672 0Z" fill="white"/>
<path d="M7.77522 29.4389C7.73116 29.5403 7.5748 29.5707 7.43236 29.5011C7.28726 29.4345 7.20577 29.2964 7.25281 29.1947C7.29588 29.0903 7.45257 29.0613 7.59733 29.1312C7.74276 29.1977 7.82557 29.3372 7.77522 29.4389Z" fill="#161514"/>
<path d="M8.58545 30.3603C8.49004 30.4505 8.30354 30.4086 8.17699 30.2661C8.04614 30.1238 8.02163 29.9337 8.11836 29.8421C8.21674 29.7519 8.39762 29.7942 8.5288 29.9364C8.65965 30.0803 8.68516 30.2691 8.58545 30.3603Z" fill="#161514"/>
<path d="M9.37426 31.5352C9.2517 31.622 9.05128 31.5406 8.92738 31.3592C8.80481 31.1778 8.80481 30.9602 8.93003 30.8731C9.05426 30.7859 9.2517 30.8643 9.37725 31.0443C9.49948 31.2288 9.49948 31.4463 9.37426 31.5352Z" fill="#161514"/>
<path d="M10.4548 32.6703C10.3452 32.7936 10.1116 32.7605 9.9407 32.5923C9.76579 32.4278 9.7171 32.1944 9.82708 32.0711C9.93805 31.9474 10.1729 31.9822 10.3452 32.1491C10.5188 32.3133 10.5718 32.5484 10.4548 32.6703Z" fill="#161514"/>
<path d="M11.9456 33.3293C11.8972 33.4891 11.6723 33.5617 11.4457 33.4938C11.2194 33.4239 11.0713 33.2368 11.1171 33.0753C11.1641 32.9145 11.39 32.8388 11.6183 32.9115C11.8442 32.9811 11.9926 33.1669 11.9456 33.3293Z" fill="#161514"/>
<path d="M13.5827 33.4515C13.5883 33.6198 13.3962 33.7593 13.1584 33.7623C12.9192 33.7677 12.7257 33.6316 12.7231 33.4661C12.7231 33.2961 12.9109 33.158 13.1501 33.1539C13.3879 33.1492 13.5827 33.2843 13.5827 33.4515Z" fill="#161514"/>
<path d="M15.1063 33.1871C15.1348 33.3513 14.9695 33.5198 14.7333 33.5648C14.501 33.608 14.2861 33.5067 14.2566 33.3438C14.2278 33.1756 14.396 33.0071 14.6279 32.9635C14.8645 32.9216 15.0761 33.0202 15.1063 33.1871Z" fill="#161514"/>
</svg>
