<svg width="41" height="41" viewBox="0 0 41 41" fill="none" xmlns="http://www.w3.org/2000/svg">
<path d="M0.250519 20.0935C0.250519 8.99615 9.22352 0 20.2923 0C31.361 0 40.334 8.99615 40.334 20.0935C40.334 31.1908 31.361 40.1869 20.2923 40.1869C9.22352 40.1869 0.250519 31.1908 0.250519 20.0935Z" fill="#FF0000"/>
<path d="M30.5344 15.1316C30.2885 14.1847 29.5641 13.4391 28.6443 13.186C26.9773 12.7261 20.2922 12.7261 20.2922 12.7261C20.2922 12.7261 13.6071 12.7261 11.94 13.186C11.0202 13.4391 10.2957 14.1847 10.0499 15.1316C9.60327 16.8478 9.60327 20.4286 9.60327 20.4286C9.60327 20.4286 9.60327 24.0092 10.0499 25.7255C10.2957 26.6724 11.0202 27.4181 11.94 27.6713C13.6071 28.1311 20.2922 28.1311 20.2922 28.1311C20.2922 28.1311 26.9773 28.1311 28.6443 27.6713C29.5641 27.4181 30.2885 26.6724 30.5344 25.7255C30.9811 24.0092 30.9811 20.4286 30.9811 20.4286C30.9811 20.4286 30.9811 16.8478 30.5344 15.1316Z" fill="white"/>
<path d="M18.2881 24.1124V17.4146L23.6325 20.7636L18.2881 24.1124Z" fill="#FF0000"/>
</svg>
