<svg width="23" height="20" viewBox="0 0 23 20" fill="none" xmlns="http://www.w3.org/2000/svg">
<path d="M11.4872 16.8337L11.3784 16.942L11.2587 16.8337C6.09149 12.1679 2.67568 9.08263 2.67568 5.95405C2.67568 3.78894 4.30743 2.16511 6.48311 2.16511C8.15838 2.16511 9.79013 3.24766 10.3667 4.71993H12.3901C12.9666 3.24766 14.5984 2.16511 16.2736 2.16511C18.4493 2.16511 20.0811 3.78894 20.0811 5.95405C20.0811 9.08263 16.6653 12.1679 11.4872 16.8337ZM16.2736 0C14.3808 0 12.5641 0.876869 11.3784 2.25171C10.1926 0.876869 8.37595 0 6.48311 0C3.13257 0 0.5 2.60895 0.5 5.95405C0.5 10.0353 4.19865 13.3804 9.80101 18.4359L11.3784 19.8649L12.9557 18.4359C18.5581 13.3804 22.2568 10.0353 22.2568 5.95405C22.2568 2.60895 19.6242 0 16.2736 0Z" fill="#FF636D"/>
</svg>
