<svg width="28" height="28" viewBox="0 0 28 28" fill="none" xmlns="http://www.w3.org/2000/svg">
<path d="M10.7056 0.857117C13.3176 0.857117 15.8226 1.88099 17.6696 3.7035C19.5165 5.52601 20.5541 7.99786 20.5541 10.5753C20.5541 12.9824 19.6602 15.1951 18.1905 16.8996L18.5996 17.3032H19.7966L27.3723 24.7787L25.0996 27.0214L17.5238 19.5459V18.3648L17.1147 17.9611C15.3875 19.4113 13.145 20.2934 10.7056 20.2934C8.09364 20.2934 5.58863 19.2696 3.74168 17.4471C1.89472 15.6245 0.857117 13.1527 0.857117 10.5753C0.857117 7.99786 1.89472 5.52601 3.74168 3.7035C5.58863 1.88099 8.09364 0.857117 10.7056 0.857117ZM10.7056 3.84732C6.91774 3.84732 3.88743 6.83752 3.88743 10.5753C3.88743 14.313 6.91774 17.3032 10.7056 17.3032C14.4935 17.3032 17.5238 14.313 17.5238 10.5753C17.5238 6.83752 14.4935 3.84732 10.7056 3.84732Z" fill="#FCAE30"/>
</svg>
