<svg width="41" height="41" viewBox="0 0 41 41" fill="none" xmlns="http://www.w3.org/2000/svg">
<path d="M40.0835 20.0935C40.0835 8.995 31.1116 0 20.0418 0C8.97186 0 0 8.995 0 20.0935C0 30.1245 7.32777 38.4366 16.9102 39.9436V25.9017H11.8215V20.0935H16.9102V15.6666C16.9102 10.6314 19.9009 7.84901 24.4807 7.84901C26.6727 7.84901 28.9666 8.24146 28.9666 8.24146V13.1863H26.4379C23.9483 13.1863 23.1733 14.7365 23.1733 16.3259V20.0935H28.7317L27.8432 25.9017H23.1733V39.9436C32.7557 38.4366 40.0835 30.1245 40.0835 20.0935Z" fill="#1877F2"/>
<path d="M27.8432 25.9018L28.7317 20.0936H23.1733V16.326C23.1733 14.7367 23.9483 13.1864 26.4379 13.1864H28.9666V8.24157C28.9666 8.24157 26.6727 7.84912 24.4807 7.84912C19.9009 7.84912 16.9102 10.6316 16.9102 15.6667V20.0936H11.8215V25.9018H16.9102V39.9437C17.9319 40.1046 18.977 40.187 20.0417 40.187C21.1065 40.187 22.1516 40.1046 23.1733 39.9437V25.9018H27.8432Z" fill="white"/>
</svg>
