<svg width="41" height="41" viewBox="0 0 41 41" fill="none" xmlns="http://www.w3.org/2000/svg">
<path d="M20.4175 40.1872C31.4863 40.1872 40.4593 31.191 40.4593 20.0937C40.4593 8.99642 31.4863 0.000244141 20.4175 0.000244141C9.34882 0.000244141 0.375793 8.99642 0.375793 20.0937C0.375793 31.191 9.34882 40.1872 20.4175 40.1872Z" fill="url(#paint0_linear)"/>
<path d="M7.83994 21.0765C10.1828 19.7826 12.7981 18.7028 15.2417 17.6174C19.4456 15.8396 23.6662 14.0927 27.9294 12.4663C28.7589 12.1892 30.2493 11.9181 30.3954 13.1505C30.3154 14.895 29.9862 16.6292 29.7604 18.3635C29.1873 22.1772 28.5249 25.9779 27.879 29.7791C27.6565 31.0452 26.0744 31.7007 25.0621 30.8904C22.6294 29.2429 20.178 27.6115 17.7763 25.9258C16.9896 25.1243 17.7191 23.9734 18.4217 23.4011C20.4254 21.4213 22.5503 19.7394 24.4493 17.6573C24.9615 16.4172 23.448 17.4624 22.9488 17.7826C20.2058 19.6777 17.5299 21.6886 14.6378 23.3542C13.1606 24.1695 11.4388 23.4727 9.96226 23.0178C8.63832 22.4682 6.69826 21.9146 7.83981 21.0766L7.83994 21.0765Z" fill="white"/>
<defs>
<linearGradient id="paint0_linear" x1="15.4094" y1="1.67604" x2="5.34487" y2="25.0983" gradientUnits="userSpaceOnUse">
<stop stop-color="#37AEE2"/>
<stop offset="1" stop-color="#1E96C8"/>
</linearGradient>
</defs>
</svg>
